<?xml version="1.0" encoding="UTF-8"?>
<svg version="1.1" xmlns="http://www.w3.org/2000/svg" width="1246" height="710">
<path d="M0 0 C411.18 0 822.36 0 1246 0 C1246 234.3 1246 468.6 1246 710 C834.82 710 423.64 710 0 710 C0 475.7 0 241.4 0 0 Z " fill="#FEFEFE" transform="translate(0,0)"/>
<path d="M0 0 C1.77315834 -0.00618599 1.77315834 -0.00618599 3.58213806 -0.01249695 C5.52961441 0.00368179 5.52961441 0.00368179 7.51643372 0.02018738 C8.89616884 0.02103351 10.27590531 0.02055877 11.65563965 0.01885986 C15.40339435 0.01799795 19.15086191 0.03565517 22.8985498 0.05658174 C26.81431996 0.07531601 30.73009647 0.07709641 34.64590454 0.08065796 C42.06197178 0.089988 49.47790659 0.1146147 56.89391547 0.14470643 C65.33636921 0.17822064 73.77882922 0.19472894 82.22133291 0.20979273 C99.58906576 0.24116347 116.95666135 0.29454575 134.32429504 0.36076355 C134.32429504 7.62076355 134.32429504 14.88076355 134.32429504 22.36076355 C131.35429504 23.02076355 128.38429504 23.68076355 125.32429504 24.36076355 C120.503649 26.90540798 116.57711314 30.32505251 114.32429504 35.36076355 C113.40382876 38.40141551 113.18969181 41.15034057 113.16607666 44.32151794 C113.15628784 45.31988678 113.14649902 46.31825562 113.13641357 47.34687805 C113.13065811 48.43588409 113.12490265 49.52489014 113.11897278 50.64689636 C113.10907318 51.79840179 113.09917358 52.94990723 113.088974 54.13630676 C113.05736635 57.94547972 113.03260433 61.75466515 113.00788879 65.56388855 C112.98731864 68.2037641 112.96632216 70.84363635 112.94491577 73.48350525 C112.89503499 79.72364051 112.85007908 85.96380114 112.80689341 92.20398593 C112.75748155 99.30917308 112.70257809 106.41431447 112.64721382 113.51945734 C112.53346463 128.13318274 112.42661025 142.74695368 112.32429504 157.36076355 C122.15678003 157.29927225 131.98900571 157.22196736 141.82120895 157.12504864 C146.38781178 157.08051898 150.95432897 157.04122562 155.52107239 157.014328 C159.93681298 156.98811995 164.35222084 156.94759707 168.7677536 156.89757729 C170.44360939 156.88102594 172.11952258 156.86943924 173.7954483 156.86314964 C189.23002922 156.79942236 202.46856757 155.34084038 214.39070129 144.47795105 C224.41900487 133.77820598 226.60885257 121.14759487 226.6431427 106.93229675 C226.65318832 105.9553334 226.66323395 104.97837006 226.67358398 103.97180176 C226.70414866 100.78505471 226.72137604 97.5983906 226.73835754 94.4115448 C226.75709073 92.18523457 226.77666571 89.95893128 226.79704285 87.7326355 C226.84814283 81.90488292 226.88788644 76.07710738 226.92518616 70.24925232 C226.96536527 64.2896212 227.01639386 58.33008378 227.06648254 52.37052917 C227.16297951 40.70066691 227.24646339 29.03076524 227.32429504 17.36076355 C240.85429504 17.36076355 254.38429504 17.36076355 268.32429504 17.36076355 C268.39231453 30.79199674 268.44725126 44.22311385 268.47973156 57.65448093 C268.49532749 63.89249683 268.51645397 70.13038785 268.5506134 76.36833191 C268.58342446 82.39839833 268.60119362 88.42834532 268.60892677 94.45849419 C268.61443147 96.74876216 268.62517976 99.03902426 268.64148521 101.3292408 C268.75982305 118.65378614 267.85285042 133.45220903 260.32429504 149.36076355 C259.93242004 150.23474792 259.54054504 151.1087323 259.13679504 152.00920105 C256.27138074 158.13590926 252.65814856 163.19022248 248.32429504 168.36076355 C247.80222473 169.02849792 247.28015442 169.6962323 246.74226379 170.38420105 C234.2547884 185.75807587 213.68832911 195.48576489 194.32429504 198.36076355 C190.0876987 198.62338805 185.86623182 198.61452833 181.62263489 198.58781433 C180.39222473 198.58810638 179.16181458 198.58839844 177.89411926 198.58869934 C174.55174348 198.58755252 171.20962103 198.57758786 167.86729002 198.56355143 C164.36261983 198.55096833 160.85794552 198.54986764 157.35325623 198.54750061 C150.73077135 198.54130795 144.10835326 198.52492742 137.48589766 198.50480163 C129.94047413 198.48237331 122.39504726 198.47143184 114.84959865 198.46141076 C99.34112557 198.44055899 83.83271895 198.40542653 68.32429504 198.36076355 C68.3188266 197.40261497 68.3188266 197.40261497 68.31324768 196.42510986 C68.27097378 189.69082583 68.20132494 182.95719526 68.11677551 176.22331238 C68.08879619 173.72044964 68.06746893 171.21750233 68.05329895 168.71452332 C68.21663187 141.1524181 68.21663187 141.1524181 57.32429504 116.36076355 C53.52055008 112.97046913 50.05234873 111.91069423 45.21492004 110.8490448 C40.35664172 109.59432416 38.30523546 107.33535077 35.32429504 103.36076355 C35.32429504 98.41076355 35.32429504 93.46076355 35.32429504 88.36076355 C46.21429504 88.36076355 57.10429504 88.36076355 68.32429504 88.36076355 C68.32429504 73.84076355 68.32429504 59.32076355 68.32429504 44.36076355 C62.93343567 44.38396667 57.54257629 44.4071698 51.98835754 44.43107605 C48.57949858 44.44129134 45.17065841 44.450919 41.76179504 44.4584198 C36.34736731 44.47038991 30.93300702 44.4845724 25.51863098 44.51164246 C21.1549798 44.53332348 16.79140091 44.54532213 12.42770004 44.55051804 C10.76027157 44.55422234 9.09284719 44.56145562 7.42544937 44.57222366 C5.09558209 44.58667575 2.76601611 44.58874416 0.43611145 44.58781433 C-0.60506081 44.59860016 -0.60506081 44.59860016 -1.66726685 44.60960388 C-6.44760063 44.58886787 -6.44760063 44.58886787 -8.67570496 42.36076355 C-8.88798947 39.45501309 -8.97966591 36.64702426 -8.97648621 33.7396698 C-8.98077133 32.88396896 -8.98505646 32.02826813 -8.98947144 31.14663696 C-8.99521964 29.33512762 -8.9957114 27.52359519 -8.99137878 25.71208191 C-8.98822136 22.9376745 -9.01166237 20.16433569 -9.03703308 17.39006042 C-9.03930625 15.63159823 -9.04000949 13.87313316 -9.03898621 12.1146698 C-9.04819595 11.28335037 -9.0574057 10.45203094 -9.06689453 9.59552002 C-9.02081689 3.86889279 -9.02081689 3.86889279 -7.50716686 1.64025402 C-4.93919652 -0.15377378 -3.1197384 -0.00837889 0 0 Z " fill="#151515" transform="translate(551.6757049560547,223.6392364501953)"/>
<path d="M0 0 C17.45582801 -0.09380136 34.9115764 -0.1641534 52.36759949 -0.20724869 C60.47431915 -0.22779815 68.58088142 -0.25577133 76.6875 -0.30175781 C83.76036857 -0.34186071 90.83312306 -0.36748802 97.90610218 -0.37635398 C101.64476984 -0.38152945 105.38311137 -0.39353056 109.12167358 -0.42292023 C139.01136914 -0.64877139 139.01136914 -0.64877139 152 4 C152.95962646 4.33143005 153.91925293 4.66286011 154.90795898 5.0043335 C157.34335801 5.88617346 159.65701323 6.89695781 162 8 C163.26650391 8.57621094 163.26650391 8.57621094 164.55859375 9.1640625 C183.29609944 18.4648273 198.1216925 35.96010606 205.28125 55.49609375 C207.90824161 63.76173522 209.15140537 71.30337085 209.11352539 79.94287109 C209.11367142 80.8215686 209.11381744 81.70026611 209.1139679 82.60559082 C209.11327413 85.49489861 209.1055069 88.38414104 209.09765625 91.2734375 C209.09579017 93.28268397 209.09436716 95.29193089 209.09336853 97.30117798 C209.08955836 102.57832098 209.0797409 107.85543627 209.06866455 113.13256836 C209.05661526 119.4702548 209.05204105 125.80795052 209.04621124 132.14564514 C209.03652833 141.76378268 209.01736126 151.38185946 209 161 C221.87 161 234.74 161 248 161 C248 174.53 248 188.06 248 202 C209.06 202 170.12 202 130 202 C130 188.47 130 174.94 130 161 C142.87 161 155.74 161 169 161 C168.87992223 146.84755422 168.87992223 146.84755422 168.7421875 132.6953125 C168.68204192 126.91735191 168.62389816 121.13942278 168.578125 115.36132812 C168.5410623 110.69928129 168.49464731 106.03741022 168.44193649 101.37551498 C168.42350343 99.60309835 168.40835525 97.83064419 168.39665604 96.05817032 C168.29429204 81.07647882 167.8885869 67.16299512 157.58203125 55.19140625 C151.40194413 49.18967662 145.1411594 45.70115628 137 43 C136.01 42.67 135.02 42.34 134 42 C131.06435863 41.87946549 128.15072174 41.81457403 125.21411133 41.79467773 C124.31634476 41.78477814 123.41857819 41.77487854 122.49360657 41.76467896 C119.52310838 41.73306544 116.5525942 41.70830705 113.58203125 41.68359375 C111.52365196 41.6630241 109.46527689 41.64202762 107.40690613 41.62062073 C101.98673928 41.56540122 96.56653432 41.51599137 91.14630127 41.46777344 C85.61637984 41.41755757 80.08651383 41.36187194 74.55664062 41.30664062 C63.70447441 41.19906051 52.8522601 41.09761517 42 41 C40.66165014 37.21008507 39.33017337 33.41779164 38 29.625 C37.6184375 28.54476562 37.236875 27.46453125 36.84375 26.3515625 C36.30234375 24.8046875 36.30234375 24.8046875 35.75 23.2265625 C35.41484375 22.27346191 35.0796875 21.32036133 34.734375 20.33837891 C34 18 34 18 34 16 C32.94941406 16.13277344 31.89882813 16.26554687 30.81640625 16.40234375 C29.39844177 16.58076312 27.98047278 16.7591466 26.5625 16.9375 C25.87478516 17.02451172 25.18707031 17.11152344 24.47851562 17.20117188 C19.32383217 17.84850422 14.16439031 18.43522431 9 19 C7.4933028 16.2118978 5.99580196 13.41896042 4.5 10.625 C4.07074219 9.8309375 3.64148438 9.036875 3.19921875 8.21875 C2.79316406 7.45820313 2.38710938 6.69765625 1.96875 5.9140625 C1.40317383 4.8614624 1.40317383 4.8614624 0.82617188 3.78759766 C0 2 0 2 0 0 Z " fill="#147DCA" transform="translate(610,20)"/>
<path d="M0 0 C38.94 0 77.88 0 118 0 C118 13.53 118 27.06 118 41 C104.8 41 91.6 41 78 41 C78.01776786 54.61366705 78.05664822 68.2268333 78.13209057 81.84030533 C78.16629511 88.16246479 78.19146046 94.48438427 78.19555664 100.80664062 C78.19985348 106.91472382 78.228432 113.02226622 78.27343178 119.13018036 C78.28636238 121.45357863 78.29073032 123.77704175 78.28615379 126.1004715 C77.99833739 143.24787417 77.99833739 143.24787417 84 159 C84.55411057 159.93596008 85.10822113 160.87192017 85.67912292 161.83624268 C89.44214107 167.91780694 93.8004292 171.55070091 100 175 C100.94875 175.5775 101.8975 176.155 102.875 176.75 C113.18679707 180.87471883 124.43903826 180.33989412 135.35546875 180.4140625 C137.11095558 180.43280654 138.8664337 180.45238227 140.62190247 180.4727478 C145.2067854 180.52373359 149.79169744 180.56353725 154.37670898 180.60089111 C159.89696888 180.64823982 165.41708818 180.70969173 170.93723297 180.76873779 C179.29143084 180.85654018 187.64560738 180.92659724 196 181 C196 194.53 196 208.06 196 222 C176.04809562 222.16043524 176.04809562 222.16043524 167.42382812 222.1953125 C161.58065937 222.21905634 155.73774557 222.24688264 149.89477539 222.30175781 C145.17441361 222.34580317 140.4543259 222.36925831 135.73377419 222.37950897 C133.94918323 222.38679669 132.16460414 222.40102092 130.38013268 222.42292023 C115.03304976 222.60345714 98.72244856 221.5618888 85 214 C83.70255859 213.35417969 83.70255859 213.35417969 82.37890625 212.6953125 C75.57252408 209.20243954 69.73798218 205.04755831 64 200 C63.23816406 199.33355469 62.47632813 198.66710937 61.69140625 197.98046875 C46.89180167 184.15553483 37.42961124 163.80617554 36.73687744 143.57159424 C36.61553503 137.05017251 36.66203535 130.52980526 36.70703125 124.0078125 C36.71263643 121.60643785 36.71690216 119.20505974 36.71989441 116.80368042 C36.73127055 110.52702118 36.76067461 104.25057494 36.79400635 97.97399902 C36.82486415 91.55170573 36.83843313 85.12937754 36.85351562 78.70703125 C36.88555199 66.13791288 36.93825995 53.56900759 37 41 C24.79 41 12.58 41 0 41 C0 27.47 0 13.94 0 0 Z " fill="#157ECA" transform="translate(381,200)"/>
<path d="M0 0 C2.08743326 -0.01611446 4.17486115 -0.03293846 6.26228333 -0.0504303 C10.59792197 -0.08009656 14.93306611 -0.08965782 19.26879883 -0.08666992 C24.81561108 -0.08615768 30.35928191 -0.15495219 35.90534496 -0.24053097 C40.19920929 -0.29612504 44.49230592 -0.30626727 48.7864933 -0.30362129 C50.83226873 -0.3095024 52.87806642 -0.33151284 54.92348289 -0.37028313 C70.78449339 -0.64330683 70.78449339 -0.64330683 75.47596741 2.97595215 C77.34411977 5.56132916 78.57230148 7.86755641 79.70703125 10.83984375 C80.07083893 11.68774979 80.43464661 12.53565582 80.80947876 13.40925598 C81.44490336 14.91078782 82.07814796 16.41324364 82.70947266 17.91650391 C84.74324056 22.32596753 86.77019662 25.88946904 90.70703125 28.83984375 C96.94833288 30.87426536 103.28486423 31.35871831 109.80493164 31.63037109 C118.02015767 32.02760456 122.42539921 33.05983978 128.26123047 39.04052734 C129.70703125 40.83984375 129.70703125 40.83984375 129.70703125 41.83984375 C128.57038167 41.84204359 128.57038167 41.84204359 127.41076946 41.84428787 C108.93886803 41.88140352 90.46715496 41.94048117 71.99540234 42.02374649 C63.06244305 42.0634888 54.12957125 42.09590565 45.1965332 42.11083984 C37.4068933 42.12388136 29.61744627 42.15090953 21.82791501 42.19445682 C17.70663807 42.21701566 13.58559853 42.2327578 9.46425438 42.2317276 C5.57762677 42.23097766 1.69152282 42.24906074 -2.19496918 42.28101158 C-3.6142125 42.28946483 -5.03351487 42.29129191 -6.45277214 42.28564644 C-20.49222984 42.23727991 -30.64066682 45.56808015 -41.29296875 54.83984375 C-52.50815848 66.2210088 -53.03621852 80.04357694 -53 95.04296875 C-53.01313746 96.97639509 -53.02844791 98.90980777 -53.04582214 100.84320068 C-53.08544548 105.89344619 -53.0958479 110.94333081 -53.09985352 115.99371338 C-53.11088065 122.07385755 -53.15875224 128.15381324 -53.20034027 134.23381042 C-53.25921341 143.435982 -53.27171991 152.63716245 -53.29296875 161.83984375 C-66.82296875 161.83984375 -80.35296875 161.83984375 -94.29296875 161.83984375 C-94.41329518 140.18999978 -94.41329518 140.18999978 -94.43945312 130.88671875 C-94.4573136 124.56470079 -94.47833075 118.24281448 -94.51928711 111.92089844 C-94.55213509 106.81802563 -94.56987487 101.71529422 -94.57760048 96.61232376 C-94.58309869 94.6756938 -94.59383386 92.73907064 -94.61015892 90.80250168 C-94.72635519 76.43343299 -94.21686805 62.81950818 -87.29296875 49.83984375 C-86.73738281 48.77121094 -86.18179687 47.70257813 -85.609375 46.6015625 C-74.31600079 25.49955374 -57.16475217 10.94192424 -34.29793262 3.77985477 C-22.8459249 0.45906264 -11.86769371 0.02184496 0 0 Z " fill="#151515" transform="translate(512.29296875,19.16015625)"/>
<path d="M0 0 C10.56 0 21.12 0 32 0 C32.01458252 2.24578857 32.02916504 4.49157715 32.04418945 6.80541992 C32.09454993 14.22951705 32.16114758 21.65340476 32.23571491 29.07729626 C32.28042263 33.57796116 32.31967784 38.07853545 32.34643555 42.5793457 C32.37246458 46.92373971 32.41286403 51.26778512 32.46318626 55.61196327 C32.47985771 57.26848321 32.49137027 58.92506344 32.49761391 60.5816555 C32.50725217 62.90401028 32.53530677 65.22547273 32.56762695 67.54760742 C32.56619186 68.23093643 32.56475677 68.91426544 32.5632782 69.61830139 C32.64817059 73.93758526 33.58330096 76.45737902 36 80 C36 80.66 36 81.32 36 82 C36.78375 82.309375 37.5675 82.61875 38.375 82.9375 C41 84 41 84 43 85 C49.32929515 85.64997812 54.62219578 85.29747074 60.34375 82.4609375 C63.73893168 79.46613102 64.90605375 75.84086767 65.39872742 71.43118286 C65.40983047 70.11213959 65.42093353 68.79309631 65.43237305 67.43408203 C65.4425647 66.70168808 65.45275635 65.96929413 65.46325684 65.21470642 C65.49326668 62.81232942 65.50263405 60.41035192 65.51171875 58.0078125 C65.5285744 56.33485603 65.54672584 54.66191216 65.56611633 52.98898315 C65.61352641 48.59964942 65.64339378 44.21036677 65.66955566 39.82086182 C65.6994067 35.33620111 65.74592139 30.85171625 65.79101562 26.3671875 C65.87694653 17.57819698 65.94279577 8.78922448 66 0 C76.56 0 87.12 0 98 0 C98.20054405 17.86624629 98.20054405 17.86624629 98.24414062 25.57226562 C98.27385351 30.79917264 98.30872702 36.02563546 98.37719727 41.25219727 C98.43213984 45.47330476 98.46154922 49.69393495 98.47438622 53.91537285 C98.48351597 55.51350847 98.50133881 57.11162254 98.52865028 58.70955086 C98.7653613 73.15369634 96.49030025 86.46599648 87 98 C86.24976563 98.93392578 86.24976563 98.93392578 85.484375 99.88671875 C77.50288618 108.81746231 64.74972309 113.54773858 52.98828125 114.31640625 C37.22147092 114.94636483 24.05718309 110.46144982 12.1875 99.8125 C7.93871973 95.268241 5.31809204 89.72195707 3 84 C2.61454262 83.05367958 2.61454262 83.05367958 2.22129822 82.08824158 C-0.71279737 73.80221564 -0.38025946 65.49336945 -0.29296875 56.8359375 C-0.28736297 55.19113556 -0.28309752 53.54632855 -0.28010559 51.90151978 C-0.26873404 47.60412395 -0.23933457 43.30703965 -0.20599365 39.00976562 C-0.16968388 33.83676082 -0.15609493 28.66365098 -0.13863373 23.49055481 C-0.10969139 15.66015422 -0.05215139 7.83043511 0 0 Z " fill="#181818" transform="translate(88,497)"/>
<path d="M0 0 C1.11890625 0.47953125 2.2378125 0.9590625 3.390625 1.453125 C11.86639356 5.40848366 19.30327682 10.70335451 26.296875 16.88671875 C26.86092041 17.38147705 27.42496582 17.87623535 28.00610352 18.38598633 C29.09451444 19.34986294 30.17147723 20.32689034 31.23413086 21.3190918 C35.65302058 25.25491926 37.61164307 25.40291077 44 27 C44 34.26 44 41.52 44 49 C40.30538574 49.02187378 40.30538574 49.02187378 36.53613281 49.04418945 C28.40157228 49.09450808 20.26720372 49.16109827 12.13283157 49.23571491 C7.20055014 49.28045805 2.26835206 49.31970546 -2.6640625 49.34643555 C-7.42340314 49.3724292 -12.18242369 49.4128036 -16.94156647 49.46318626 C-18.75800854 49.47988166 -20.574506 49.49137927 -22.3910141 49.49761391 C-24.93386964 49.50722602 -27.47590133 49.53524991 -30.01855469 49.56762695 C-30.77093414 49.56619186 -31.5233136 49.56475677 -32.29849243 49.5632782 C-35.43188046 49.61976875 -37.66618114 49.81646318 -40.43634033 51.33952332 C-43.38433732 54.47005125 -43.17657175 57.88531545 -43.31640625 61.98046875 C-43.35451416 63.02871826 -43.39262207 64.07696777 -43.43188477 65.15698242 C-43.47498779 66.48705322 -43.51809082 67.81712402 -43.5625 69.1875 C-43.706875 73.415625 -43.85125 77.64375 -44 82 C-58.85 82 -73.7 82 -89 82 C-89.0825 74.6575 -89.165 67.315 -89.25 59.75 C-89.28641602 57.45772461 -89.32283203 55.16544922 -89.36035156 52.80371094 C-89.54295775 33.25866719 -89.54295775 33.25866719 -85 24 C-84.47019531 22.91203125 -83.94039062 21.8240625 -83.39453125 20.703125 C-75.01110821 7.70364434 -62.91490704 -0.8510601 -48 -5 C-31.35889759 -8.04812272 -15.45506472 -6.75863687 0 0 Z " fill="#161616" transform="translate(653,131)"/>
<path d="M0 0 C10.23 0 20.46 0 31 0 C31 13.2 31 26.4 31 40 C33.31 39.01 35.62 38.02 38 37 C41.06500153 36.4519386 44.07693314 36.47557146 47.1875 36.5 C48.43998535 36.50749268 48.43998535 36.50749268 49.71777344 36.51513672 C59.1071164 36.77806733 67.57601905 39.63408158 74.4765625 46.21484375 C83.85256455 57.20159487 85.93637147 69.08097805 85.1640625 83.06298828 C84.79969714 87.36488531 83.77404953 91.07948595 82 95 C81.62101562 95.83917969 81.24203125 96.67835938 80.8515625 97.54296875 C76.33430253 106.1727631 69.032809 112.02562752 59.75 115 C49.54445864 117.23703127 39.12441067 117.53893764 30 112 C30 112.99 30 113.98 30 115 C20.1 115 10.2 115 0 115 C0 77.05 0 39.1 0 0 Z " fill="#151515" transform="translate(268,494)"/>
<path d="M0 0 C0.99 1.98 0.99 1.98 2 4 C-4.6 10.6 -11.2 17.2 -18 24 C-21.3 22.02 -24.6 20.04 -28 18 C-34.97625836 15.67458055 -45.7131135 15.78763697 -52.75 18.1875 C-58.90475382 21.61995886 -62.91286975 26.73075087 -66 33 C-68.62494813 42.81863509 -67.90841105 53.33613993 -63.55078125 62.46875 C-61.24375388 66.23437654 -58.73253377 68.67735344 -55 71 C-54.01 71.61875 -53.02 72.2375 -52 72.875 C-45.05644479 75.52016389 -35.39315393 75.19387841 -28.4375 72.75 C-25.05362696 71.027301 -22.06811931 69.2243865 -19 67 C-15.53370165 68.48653506 -13.30977964 70.45722351 -10.671875 73.1328125 C-9.87265625 73.93847656 -9.0734375 74.74414062 -8.25 75.57421875 C-7.425 76.41597656 -6.6 77.25773438 -5.75 78.125 C-4.90953125 78.97449219 -4.0690625 79.82398438 -3.203125 80.69921875 C-1.13084317 82.79504923 0.93662393 84.89540713 3 87 C-0.77783507 91.17818368 -4.51190736 93.67535106 -9.5625 96.125 C-10.2743042 96.47046875 -10.9861084 96.8159375 -11.71948242 97.171875 C-27.1206914 104.43172747 -44.1129242 105.36210043 -60.421875 100.40234375 C-75.87525117 94.34583497 -88.11549359 84.57622677 -95.375 69.4375 C-101.0004285 56.27583169 -102.52752088 39.84532055 -98 26 C-91.62277631 11.12585043 -80.53403426 -1.08772954 -65.7578125 -7.93359375 C-44.54918494 -16.13466361 -18.28285698 -14.13916448 0 0 Z " fill="#161616" transform="translate(648,508)"/>
<path d="M0 0 C0.33 -0.99 0.66 -1.98 1 -3 C10.9 -3 20.8 -3 31 -3 C31 22.41 31 47.82 31 74 C21.1 74 11.2 74 1 74 C0.67 73.01 0.34 72.02 0 71 C-0.54785156 71.28875 -1.09570312 71.5775 -1.66015625 71.875 C-10.50369616 76.01636503 -20.45461049 76.63017522 -29.875 73.875 C-39.10683339 70.13706369 -45.95914095 64.47157183 -50.21875 55.40625 C-54.94964335 43.91693758 -56.58886344 30.11226715 -51.875 18.3125 C-47.16857063 8.86009143 -40.98737401 1.21506745 -31 -2.875 C-20.74256592 -5.84378941 -9.38514089 -5.0535374 0 0 Z " fill="#151515" transform="translate(413,535)"/>
<path d="M0 0 C8.59024055 5.50656445 14.03229066 13.42053655 17.296875 23.046875 C19.48208127 35.37143836 17.73973347 46.15138258 11.11328125 56.7734375 C4.4488381 66.12540667 -6.05087514 72.10299958 -17.3125 74.25 C-31.40560596 75.22801987 -44.00393807 73.42570938 -55.3125 64.25 C-55.93769531 63.74855469 -56.56289063 63.24710938 -57.20703125 62.73046875 C-63.69680797 56.91936149 -68.99820186 47.5749358 -69.515625 38.80859375 C-69.78528655 24.89134402 -67.43439606 14.98342706 -57.65234375 4.46484375 C-41.55398913 -10.41566844 -18.31830413 -10.0517231 0 0 Z " fill="#161616" transform="translate(723.3125,536.75)"/>
<path d="M0 0 C6.77953788 4.13785588 12.17549293 10.25786715 14.3125 18 C14.72051923 22.46004858 14.66169085 26.89568623 14.60546875 31.37109375 C14.60122391 32.64855972 14.59697906 33.9260257 14.59260559 35.24220276 C14.5787045 38.61748297 14.5518115 41.99214052 14.51849365 45.36724854 C14.48765322 48.81964681 14.47390552 52.27211164 14.45898438 55.72460938 C14.42853013 62.48342047 14.36979637 69.24115029 14.3125 76 C4.0825 76 -6.1475 76 -16.6875 76 C-16.74808594 72.56980469 -16.80867187 69.13960937 -16.87109375 65.60546875 C-16.93287301 62.28928397 -16.99626493 58.97313369 -17.05981445 55.65698242 C-17.10316999 53.34939635 -17.1448446 51.04177806 -17.18481445 48.73413086 C-17.24250183 45.42031133 -17.30620092 42.10665403 -17.37109375 38.79296875 C-17.38780624 37.7585112 -17.40451874 36.72405365 -17.42173767 35.6582489 C-17.4516555 34.21709465 -17.4516555 34.21709465 -17.48217773 32.74682617 C-17.50549416 31.47774666 -17.50549416 31.47774666 -17.52928162 30.18302917 C-17.61024103 27.82040513 -17.61024103 27.82040513 -18.6875 25 C-22.32532632 23.78739123 -24.86485999 23.60455448 -28.6875 24 C-31.64670675 26.0413059 -33.41035581 27.66600258 -34.15908813 31.26992798 C-34.36353756 34.11312032 -34.40571613 36.91898956 -34.39453125 39.76953125 C-34.40965256 40.80567062 -34.42477386 41.84181 -34.44035339 42.90934753 C-34.48325535 46.21061931 -34.49207116 49.51097713 -34.5 52.8125 C-34.52314224 55.0540608 -34.548507 57.29559983 -34.57617188 59.53710938 C-34.64322417 65.02523812 -34.66415983 70.51081562 -34.6875 76 C-44.5875 76 -54.4875 76 -64.6875 76 C-64.6875 50.59 -64.6875 25.18 -64.6875 -1 C-54.7875 -1 -44.8875 -1 -34.6875 -1 C-34.3575 -0.01 -34.0275 0.98 -33.6875 2 C-33.17445313 1.71125 -32.66140625 1.4225 -32.1328125 1.125 C-22.67739622 -3.45944426 -9.73464186 -4.39773254 0 0 Z " fill="#151515" transform="translate(908.6875,533)"/>
<path d="M0 0 C8.35415711 6.0620418 14.30595464 14.86681105 16.125 25.1875 C16.21849326 27.5193318 16.25494428 29.85379991 16.25 32.1875 C16.25386719 34.0128125 16.25386719 34.0128125 16.2578125 35.875 C16.125 39.1875 16.125 39.1875 15.125 43.1875 C-2.365 43.1875 -19.855 43.1875 -37.875 43.1875 C-33.94729508 49.50583537 -33.94729508 49.50583537 -27.875 52.1875 C-21.167636 52.91700182 -15.77871339 52.50833878 -9.875 49.1875 C-9.318125 48.61 -8.76125 48.0325 -8.1875 47.4375 C-7.754375 47.025 -7.32125 46.6125 -6.875 46.1875 C-2.2742187 46.82116899 0.2930868 49.84066669 3.4375 53 C4.00017578 53.53431641 4.56285156 54.06863281 5.14257812 54.61914062 C6.73828125 56.20703125 6.73828125 56.20703125 9.125 59.1875 C8.8084503 61.7568384 8.42949878 62.86948561 6.62890625 64.75 C-4.92306258 73.30357048 -16.7027359 75.04218698 -30.875 74.1875 C-42.94865989 72.19094426 -53.26581351 66.87323929 -60.875 57.1875 C-67.36895705 46.45064244 -69.92260624 35.68543255 -67.2265625 23.1796875 C-63.35984656 11.57953967 -56.44017347 3.29307295 -45.875 -2.8125 C-31.24396827 -10.09714871 -13.71440251 -8.49746202 0 0 Z " fill="#171717" transform="translate(998.875,536.8125)"/>
<path d="M0 0 C5.93160723 4.69774237 11.46181927 10.81855404 12.40763855 18.58248901 C12.40097672 19.61729401 12.39431488 20.652099 12.38745117 21.71826172 C12.38722458 22.8990329 12.38699799 24.07980408 12.38676453 25.2963562 C12.37128067 26.55594147 12.35579681 27.81552673 12.33984375 29.11328125 C12.33559891 30.41435822 12.33135406 31.71543518 12.32698059 33.05593872 C12.31557979 36.49855138 12.28615474 39.94077842 12.25286865 43.38323975 C12.22206418 46.90257458 12.2082883 50.42197417 12.19335938 53.94140625 C12.16287484 60.83497489 12.10414496 67.72748753 12.046875 74.62109375 C2.146875 74.62109375 -7.753125 74.62109375 -17.953125 74.62109375 C-17.96730469 71.28628906 -17.98148437 67.95148438 -17.99609375 64.515625 C-18.02671678 61.28204246 -18.06580505 58.04866524 -18.10571289 54.81518555 C-18.12889445 52.56981682 -18.14328895 50.32433933 -18.14868164 48.07885742 C-18.1579697 44.84875702 -18.19895923 41.62036766 -18.24609375 38.390625 C-18.2421611 37.3883638 -18.23822845 36.3861026 -18.23417664 35.35346985 C-18.33267244 30.6370583 -18.41403566 28.34187472 -21.3059082 24.4753418 C-24.53121655 22.21616842 -26.0913005 22.0459284 -29.953125 22.62109375 C-32.5559324 23.48869622 -33.61085883 24.06004913 -35.04257202 26.40692139 C-36.05251974 28.86278983 -36.22832436 30.64985507 -36.27197266 33.29785156 C-36.29184235 34.21850403 -36.31171204 35.13915649 -36.33218384 36.08770752 C-36.34951065 37.56603058 -36.34951065 37.56603058 -36.3671875 39.07421875 C-36.38655365 40.08957703 -36.4059198 41.1049353 -36.4258728 42.15106201 C-36.48560599 45.3909874 -36.53202928 48.63094843 -36.578125 51.87109375 C-36.61631051 54.06902583 -36.65536258 56.26694303 -36.6953125 58.46484375 C-36.79293194 63.85018261 -36.8725511 69.23536488 -36.953125 74.62109375 C-46.853125 74.62109375 -56.753125 74.62109375 -66.953125 74.62109375 C-66.953125 49.21109375 -66.953125 23.80109375 -66.953125 -2.37890625 C-57.053125 -2.37890625 -47.153125 -2.37890625 -36.953125 -2.37890625 C-36.953125 -1.05890625 -36.953125 0.26109375 -36.953125 1.62109375 C-35.880625 0.98171875 -34.808125 0.34234375 -33.703125 -0.31640625 C-24.55182484 -5.77198904 -9.04783709 -5.50670085 0 0 Z " fill="#141414" transform="translate(525.953125,534.37890625)"/>
<path d="M0 0 C7.33159507 4.48744181 12.19562003 10.62383833 14.3125 19 C14.71001198 23.4212199 14.66244548 27.81400524 14.60546875 32.25 C14.60122391 33.50385498 14.59697906 34.75770996 14.59260559 36.04956055 C14.57872169 39.35735787 14.55184353 42.66470382 14.51849365 45.97235107 C14.48761575 49.35781273 14.47389744 52.74334283 14.45898438 56.12890625 C14.42856159 62.75296018 14.36982389 69.37590635 14.3125 76 C4.4125 76 -5.4875 76 -15.6875 76 C-15.70167969 72.66519531 -15.71585938 69.33039063 -15.73046875 65.89453125 C-15.76109178 62.66094871 -15.80018005 59.42757149 -15.84008789 56.1940918 C-15.86326945 53.94872307 -15.87766395 51.70324558 -15.88305664 49.45776367 C-15.8923447 46.22766327 -15.93333423 42.99927391 -15.98046875 39.76953125 C-15.9765361 38.76727005 -15.97260345 37.76500885 -15.96855164 36.7323761 C-16.06704744 32.01596455 -16.14841066 29.72078097 -19.0402832 25.85424805 C-22.26559155 23.59507467 -23.8256755 23.42483465 -27.6875 24 C-30.2903074 24.86760247 -31.34523383 25.43895538 -32.77694702 27.78582764 C-33.78689474 30.24169608 -33.96269936 32.02876132 -34.00634766 34.67675781 C-34.02621735 35.59741028 -34.04608704 36.51806274 -34.06655884 37.46661377 C-34.08388565 38.94493683 -34.08388565 38.94493683 -34.1015625 40.453125 C-34.12092865 41.46848328 -34.1402948 42.48384155 -34.1602478 43.52996826 C-34.21998099 46.76989365 -34.26640428 50.00985468 -34.3125 53.25 C-34.35068551 55.44793208 -34.38973758 57.64584928 -34.4296875 59.84375 C-34.52730694 65.22908886 -34.6069261 70.61427113 -34.6875 76 C-44.5875 76 -54.4875 76 -64.6875 76 C-64.6875 50.59 -64.6875 25.18 -64.6875 -1 C-54.7875 -1 -44.8875 -1 -34.6875 -1 C-34.6875 0.32 -34.6875 1.64 -34.6875 3 C-33.98625 2.54625 -33.285 2.0925 -32.5625 1.625 C-23.4239785 -3.54025128 -9.66634044 -4.42357952 0 0 Z " fill="#141414" transform="translate(815.6875,533)"/>
<path d="M0 0 C10.23 0 20.46 0 31 0 C31 10.56 31 21.12 31 32 C36.28 32 41.56 32 47 32 C47 40.25 47 48.5 47 57 C41.72 57 36.44 57 31 57 C31 74.16 31 91.32 31 109 C20.77 109 10.54 109 0 109 C0 91.84 0 74.68 0 57 C-5.61 57 -11.22 57 -17 57 C-17 48.75 -17 40.5 -17 32 C-11.39 32 -5.78 32 0 32 C0 21.44 0 10.88 0 0 Z " fill="#171717" transform="translate(1112,500)"/>
<path d="M0 0 C0.52207031 0.48339844 1.04414062 0.96679688 1.58203125 1.46484375 C1.58203125 6.69336328 -3.06874955 9.66944903 -6.60546875 13.21484375 C-7.37439453 14.02050781 -8.14332031 14.82617188 -8.93554688 15.65625 C-10.06186523 16.79126953 -10.06186523 16.79126953 -11.2109375 17.94921875 C-11.89696045 18.64756836 -12.5829834 19.34591797 -13.28979492 20.06542969 C-15.41796875 21.46484375 -15.41796875 21.46484375 -17.9934082 21.24707031 C-19.80474977 20.66268421 -21.61236113 20.06671296 -23.41796875 19.46484375 C-29.53678135 18.96330173 -32.52450429 19.3869567 -37.41796875 23.46484375 C-40.12598084 27.52686189 -39.93925813 30.69993299 -39.41796875 35.46484375 C-38.1757536 38.99534996 -37.08700581 40.87451693 -34.29296875 43.33984375 C-30.28345771 44.90878285 -26.67176473 45.07695647 -22.41796875 44.46484375 C-19.67224147 42.98496412 -19.67224147 42.98496412 -17.41796875 41.46484375 C-13.65541452 41.80836006 -11.88203702 43.64931938 -9.30859375 46.28125 C-8.55449219 47.04501953 -7.80039063 47.80878906 -7.0234375 48.59570312 C-6.24613281 49.39814453 -5.46882813 50.20058594 -4.66796875 51.02734375 C-3.47880859 52.23680664 -3.47880859 52.23680664 -2.265625 53.47070312 C-0.30949829 55.46218153 1.63928844 57.46032096 3.58203125 59.46484375 C-0.01104121 63.41177941 -3.58159608 65.91033284 -8.41796875 68.21484375 C-9.02125 68.51777344 -9.62453125 68.82070313 -10.24609375 69.1328125 C-20.13477483 73.96966738 -31.82659175 73.80736946 -42.29296875 70.83984375 C-52.89713875 67.13618143 -61.99369612 60.54143248 -67.23046875 50.46484375 C-71.85267244 40.87337671 -73.15841562 30.57870911 -70.61328125 20.17578125 C-66.12579644 8.19883902 -57.1900745 -0.32033066 -45.81640625 -5.78515625 C-29.91485131 -12.0932111 -13.95207114 -9.21178778 0 0 Z " fill="#161616" transform="translate(1090.41796875,538.53515625)"/>
<path d="M0 0 C0.71663818 -0.01804687 1.43327637 -0.03609375 2.17163086 -0.0546875 C7.50002065 0.00484065 10.14919664 1.30485888 14.1875 4.5 C11.86575612 9.38433833 8.78224023 13.72364472 5.75 18.1875 C5.16412109 19.06728516 4.57824219 19.94707031 3.97460938 20.85351562 C3.40677734 21.68947266 2.83894531 22.52542969 2.25390625 23.38671875 C1.73771729 24.15201904 1.22152832 24.91731934 0.68969727 25.70581055 C-0.8125 27.5 -0.8125 27.5 -3.8125 28.5 C-4.8025 28.17 -5.7925 27.84 -6.8125 27.5 C-12.16534054 26.87337273 -12.16534054 26.87337273 -16.90161133 28.85961914 C-19.90387647 33.0080154 -19.41577875 37.17324632 -19.421875 42.171875 C-19.43841125 43.20942932 -19.45494751 44.24698364 -19.47198486 45.315979 C-19.52053985 48.6273791 -19.54185302 51.93831971 -19.5625 55.25 C-19.59065332 57.49611696 -19.62057984 59.74221245 -19.65234375 61.98828125 C-19.72963737 67.49240043 -19.77008905 72.99505911 -19.8125 78.5 C-30.0425 78.5 -40.2725 78.5 -50.8125 78.5 C-50.8125 53.09 -50.8125 27.68 -50.8125 1.5 C-40.5825 1.5 -30.3525 1.5 -19.8125 1.5 C-19.8125 2.49 -19.8125 3.48 -19.8125 4.5 C-19.21566406 4.21125 -18.61882812 3.9225 -18.00390625 3.625 C-11.95268233 1.03547178 -6.51699728 0.06783387 0 0 Z " fill="#161616" transform="translate(250.8125,530.5)"/>
<path d="M0 0 C14.52 0 29.04 0 44 0 C44 7.26 44 14.52 44 22 C29.48 22 14.96 22 0 22 C0 14.74 0 7.48 0 0 Z " fill="#161616" transform="translate(565,279)"/>
<path d="M0 0 C3.95215917 2.08793315 6.63625364 4.21936822 9 8 C9.74252547 12.4769918 9.54587651 16.67840424 7.8125 20.875 C2.95495066 26.57005784 2.95495066 26.57005784 -1.078125 27.45703125 C-5.67823428 27.7934338 -8.41424163 27.14611956 -12 24.1875 C-15.46425157 20.93976416 -16.19833367 17.91736726 -16.4375 13.25 C-16.41536196 8.20990701 -14.96548934 5.82689124 -11.5078125 2.27734375 C-8.07215122 -0.63317759 -4.30399085 -0.58508628 0 0 Z " fill="#FAFAFA" transform="translate(701,557)"/>
<path d="M0 0 C4.22384298 3.55186796 5.5965708 5.70149343 6.125 11.25 C5.92823981 15.99013185 4.51985681 19.67908589 0.9765625 22.94921875 C-3.11995494 25.45743732 -7.62171918 25.04152111 -12.25 24.3125 C-15.92003939 22.45614286 -17.93093126 20.26970623 -19.25 16.3125 C-19.74007463 12.24488055 -20.17506284 8.12932342 -18.2734375 4.39453125 C-13.27780422 -1.81170028 -7.33224976 -3.80712968 0 0 Z " fill="#FAFAFA" transform="translate(409.25,558.6875)"/>
<path d="M0 0 C3.92175565 2.11171458 6.64691003 4.22553488 9 8 C9.74700572 12.5040051 9.52328795 16.70555085 7.8125 20.9375 C5.02621675 24.10809818 2.90464899 25.74269981 -1.37109375 26.3203125 C-5.63789757 26.51051178 -8.25795044 26.43286224 -12 24.25 C-15.70649503 20.08019309 -16.45147923 16.72495818 -16.31640625 11.25 C-15.6706483 6.6579435 -13.17724623 3.95452397 -9.6875 1.125 C-6.16108808 -0.35117243 -3.79611 -0.46618895 0 0 Z " fill="#FAFAFA" transform="translate(313,557)"/>
<path d="M0 0 C3.4375 1.625 3.4375 1.625 6 4 C6.66 5.98 7.32 7.96 8 10 C-0.58 10 -9.16 10 -18 10 C-14.49867458 1.24668646 -8.93496235 -1.06618878 0 0 Z " fill="#F8F8F8" transform="translate(979,551)"/>
</svg>
